<svg id="Layer_1" data-name="Layer 1" xmlns="http://www.w3.org/2000/svg" viewBox="0 0 293 50"><defs><style>.cls-1{fill:#221f1f;}</style></defs><title>cocobuds_logo</title><path class="cls-1" d="M25.26,40.27v5.06H20.44v5.05H4.81V45.33H0V20.07H4.81V15H20.44v5.05h4.82v5.05H20.21V20.07H5.05V45.33H20.21V40.27Z"/><path class="cls-1" d="M35.36,40.27V25.12h5V20.07h5.06V15h10.1v5.05h5v5.05h5.05V40.27H60.62v5.06h-5v5.05H45.47V45.33H40.41V40.27Zm25,0V25.12H55.33V20.07H45.7v5.05H40.65V40.27H45.7v5.06h9.63V40.27Z"/><path class="cls-1" d="M101,40.27v5.06H96.22v5.05H80.59V45.33H75.78V20.07h4.81V15H96.22v5.05H101v5.05H96V20.07H80.83V45.33H96V40.27Z"/><path class="cls-1" d="M111.14,40.27V25.12h5V20.07h5V15h10.1v5.05h5.06v5.05h5V40.27h-5v5.06h-5.06v5.05h-10.1V45.33h-5V40.27Zm25,0V25.12h-5V20.07h-9.63v5.05h-5V40.27h5v5.06h9.63V40.27Z"/><path class="cls-1" d="M151.55,50.38V-.14h5V20.07h5.06V15h10.1v5.05h5.05v5.05h5.05V40.27h-5.05v5.06h-5.05v5.05h-10.1V45.33H156.6v5.05Zm25-10.11V25.12h-5V20.07h-9.63v5.05H156.6V40.27h5.29v5.06h9.63V40.27Z"/><path class="cls-1" d="M192,45.33V15H197V45.33h15.15V15h5.05V50.38H196.78V45.33Z"/><path class="cls-1" d="M252.59,50.38V45.33h-5.06v5.05h-10.1V45.33h-5.05V40.27h-5V25.12h5V20.07h5.05V15h10.1v5.05h5.06V-.14h5V50.38ZM237.67,40.27v5.06h9.63V40.27h5.29V25.12H247.3V20.07h-9.63v5.05h-5V40.27Z"/><path class="cls-1" d="M272.79,20.07v10.1h15.4v5H293V45.33h-4.81v5.05H272.56V45.33h-4.82V40.27h5.05v5.06H288V35.22H272.56v-5h-4.82V20.07h4.82V15h10.57v5.05H288v5.05H282.9V20.07Z"/></svg>