<svg id="Layer_1" data-name="Layer 1" xmlns="http://www.w3.org/2000/svg" xmlns:xlink="http://www.w3.org/1999/xlink" viewBox="0 0 777.62 680.49"><defs><style>.cls-1{fill:#fff;}.cls-2,.cls-3{fill:#fddc1c;}.cls-10,.cls-2{opacity:0.2;}.cls-19,.cls-2,.cls-6{isolation:isolate;}.cls-4{fill:url(#linear-gradient);}.cls-5{fill:#65617d;}.cls-17,.cls-6{opacity:0.1;}.cls-7{fill:#fbbebe;}.cls-8{fill:#3f3d56;}.cls-9{fill:#e7effd;}.cls-11{fill:url(#linear-gradient-2);}.cls-12{fill:#be6f72;}.cls-13{fill:#444053;}.cls-14{fill:#f3f5f9;}.cls-15{fill:#67647e;}.cls-16{fill:none;}.cls-18{fill:url(#linear-gradient-3);}.cls-19{opacity:0.05;}.cls-20{fill:#ee8e9e;}.cls-21{fill:#e3e8f4;}.cls-22{fill:#e6e8ec;}.cls-23{fill:#565387;}</style><linearGradient id="linear-gradient" x1="158.07" y1="-131.53" x2="158.07" y2="124.18" gradientTransform="matrix(1, 0, 0, -1, -28, 550.23)" gradientUnits="userSpaceOnUse"><stop offset="0" stop-color="gray" stop-opacity="0.25"/><stop offset="0.54" stop-color="gray" stop-opacity="0.12"/><stop offset="1" stop-color="gray" stop-opacity="0.1"/></linearGradient><linearGradient id="linear-gradient-2" x1="-159.15" y1="223.94" x2="-159.15" y2="525.91" gradientTransform="translate(242.18 550.23) rotate(180)" xlink:href="#linear-gradient"/><linearGradient id="linear-gradient-3" x1="722.34" y1="-118.98" x2="722.34" y2="148.93" xlink:href="#linear-gradient"/></defs><title>search_friends</title><path class="cls-1" d="M667.27,23.7v98.18c0,5.18-5,9.4-11.17,9.4H419.7c-6.17,0-11.17-4.22-11.17-9.4V23.7c0-5.19,5-10.48,11.17-10.48H656.1C662.28,13.22,667.27,18.51,667.27,23.7Z" transform="translate(-29.26 -13.22)"/><path class="cls-2" d="M667.27,24.38V51.79H408.53V24.39a11.16,11.16,0,0,1,11.16-11.16H656.1a11.15,11.15,0,0,1,11.17,11.13Z" transform="translate(-29.26 -13.22)"/><circle class="cls-1" cx="393.46" cy="19.27" r="7.47"/><circle class="cls-1" cx="415.19" cy="19.27" r="7.47"/><circle class="cls-1" cx="436.92" cy="19.27" r="7.47"/><circle class="cls-2" cx="430.53" cy="77.67" r="29.2"/><rect class="cls-3" x="492.82" y="58.02" width="123.14" height="4.35"/><rect class="cls-2" x="492.82" y="68.62" width="123.14" height="4.35"/><rect class="cls-2" x="492.82" y="79.21" width="123.14" height="4.35"/><rect class="cls-2" x="492.82" y="89.8" width="123.14" height="4.35"/><path class="cls-2" d="M629.68,223.05v59.38h-561V223.05a24.21,24.21,0,0,1,24.16-24.26H605.46A24.22,24.22,0,0,1,629.68,223Z" transform="translate(-29.26 -13.22)"/><circle class="cls-1" cx="70.18" cy="227.41" r="16.19"/><circle class="cls-1" cx="117.3" cy="227.41" r="16.19"/><circle class="cls-1" cx="164.41" cy="227.41" r="16.19"/><path class="cls-3" d="M458.24,472.35a16.16,16.16,0,0,1,2.2-8.13c.43-.71.9-1.4,1.4-2.07a108,108,0,0,0,18.41-60.22c.2-61.49-51.69-111.38-115.84-111.38-56,0-102.64,38.08-113.58,88.63A107.38,107.38,0,0,0,248.36,402c0,61.56,49.89,112.78,114.05,112.78,10.2,0,23.94-3.07,31.47-5.13s15-4.81,16.94-5.54A18,18,0,0,1,417,503a17.26,17.26,0,0,1,6.73,1.33l37.82,13.41a9,9,0,0,0,2.6.66,5.3,5.3,0,0,0,5.33-5.27V513a9.2,9.2,0,0,0-.33-1.8Z" transform="translate(-29.26 -13.22)"/><path class="cls-3" d="M383.21,520.35c-2.4.66-5.47,1.4-8.8,2.13-7,1.47-15.94,3-22.68,3-64.15,0-114-51.22-114-112.78a126.24,126.24,0,0,1,1-14.27c.4-2.87.87-5.73,1.53-8.53.67-3,1.47-6,2.34-8.94l-5.34,4.73a99.29,99.29,0,0,0-34.45,74.66A98.18,98.18,0,0,0,219.35,515c1.53,2.34,2.4,4.14,2.13,5.34s-7.93,41.35-7.93,41.35a5.25,5.25,0,0,0,5.2,6.33,4.61,4.61,0,0,0,1.93-.4l37.42-14.74a10.42,10.42,0,0,1,8,.14,112.09,112.09,0,0,0,40.48,8,104.75,104.75,0,0,0,80.1-36.75s2.14-2.93,4.6-6.4c-2.46.87-5.27,1.73-8.07,2.47Z" transform="translate(-29.26 -13.22)"/><path class="cls-4" d="M204.78,606.58s-15.65,3.77-21.85,10.87a21.1,21.1,0,0,1-8.34,5.3V612c3.58-6,7.2-12.7,7.2-12.7.16-.33,1.46-4.94,1.46-4.94,2.94-2.31-.16-10.38-.16-10.38s1.79-5.11.82-6.1-.17-3.62.65-4.77a6,6,0,0,0,.65-3.63c0-1-1.3-2.47-3.42-3.29s.16-2.14,1.46-2.47,1.63-3.46.17-5.11.16-2.63,1-4.45-2.6-1.48-2.6-1.48V536.08h0s-1-5.44-2-15-4.73-10.54-4.73-10.54a41.58,41.58,0,0,1-5.87-2.31,41.17,41.17,0,0,0-6.2-2.3,31.38,31.38,0,0,1-8-1.11,24.86,24.86,0,0,0-5.46-1.18l-.56-.29a21.4,21.4,0,0,1-9.9-10.49c-.1-.22-.19-.45-.28-.67a23.77,23.77,0,0,0,2.61-3.46h0v1.94h0c2.61-4.6,10.15-5.65,10.87-10.89a5.81,5.81,0,0,0,0-.72h0v-.53c-.1-1.47-.6-2.93-.7-4.41a9,9,0,0,1,0-1.27h0c.33-4.07,3.41-7.61,4.81-11.57a14.75,14.75,0,0,0,.74-3.3h0c0-.34.06-.68.07-1v-1a15.47,15.47,0,0,0-5.09-11.14c-2.6-2.26-6-3.68-7.84-6.63-.84-1.37-1.25-3-2.17-4.32-1.72-2.49-4.89-3.51-7.88-3.87s-6.08-.24-8.95-1.19c-2-.66-3.88-1.84-5.93-2.44a11.34,11.34,0,0,0-12.19,4.4c-1.08,1.58-1.79,3.47-3.25,4.7-3,2.52-8.06,1.43-10.68,4.34-1.44,1.6-1.6,3.78-1.43,6V447c.09.8.21,1.59.31,2.36v.35c0,.11.06.48.08.72a4.46,4.46,0,0,1,0,.52v1.16a35,35,0,0,1-3.74,17.56c-2.46,4.85-6.13,9.31-6.77,14.72a14.9,14.9,0,0,0-.07,2.67v.79l.06.55v.32c0,.11.07.48.11.73v.15c.65,3.69,2.12,7.33,2.9,11a31.06,31.06,0,0,1,.58,4.16h0a10,10,0,0,0,.06,1.34c.06.45,0,1.21,0,1.81a28.39,28.39,0,0,1-3.81,1.17c-2.28.33-9,6.26-8.48,7.74S70.09,528.67,70,529h0l-5.5,37.89s-2.91,2.8-2,4.61-.17,4.94-.17,4.94-4.91,2.14-3.82,3.46.59,3.79-.16,5.44-2,4.61,0,5.1.34,6.92.34,6.92,6.88-.79,6.38,3.3c-.16,1.3,4.81,4.88,6.89,6.31v19.68a58.94,58.94,0,0,1-8.16-2.77c-4.24-2-28-5.76-33.27,5.6S37.71,656,40.81,657.62a21.32,21.32,0,0,1,3.58,3.46c.66,1.15,4.41,1.48,4.41,1.48s3.91,1.82,4.89,2.8c.72.73,6.68,2.63,13.76,4.1h0s-5.7,13.14,3.61,12.06,13.85-5.67,20.42-5.67c2.62,0,7.49-.36,12.4-.8a32.77,32.77,0,0,1,3.65.86,46.4,46.4,0,0,0,8.48,1.81s7.34,4,11.25,3a2.39,2.39,0,0,0,.89-.47h.09a5.22,5.22,0,0,0,2.36-2c4.9.5,10.48,1.21,12.58,2,4.06,1.57,33.07-.6,33.07-.6s18.75.37,24.12,2,3.46-16.58-6.45-18.63a40.41,40.41,0,0,0-8.06-.71,18.59,18.59,0,0,0,1.87-2.28c3.57-.33,5.92-.53,5.92-.53s9.46-4.61,14.84-7.41a34,34,0,0,0,9.14-7.25s4.73-3,6.68-4.11,2.94-5,2.94-5C242.46,602.13,204.78,606.58,204.78,606.58Zm-42.47-42.16v-1.66C162.83,563.14,162.76,563.73,162.31,564.42Zm.15,11.65c.4.52.78,1,1.06,1.35,1,1.35-.86,2-.72,4.28,0,.51.08,1.21.12,2h0c-.2-3.25-.36-6-.46-7.63Z" transform="translate(-29.26 -13.22)"/><path class="cls-5" d="M77.56,628.06s-9.14-2.12-13.38-4.08-28.05-5.71-33.27,5.55,7.18,26.26,10.28,27.89S74.46,636.7,74.46,636.7l23.81,10,4.57-15.58Z" transform="translate(-29.26 -13.22)"/><rect class="cls-5" x="58.37" y="617.93" width="103.62" height="36.05" rx="16.59"/><path class="cls-6" d="M191.25,649.18a18,18,0,0,1-18,18h-67.6a18,18,0,0,1,0-36h67.57a18,18,0,0,1,18,18h0Z" transform="translate(-29.26 -13.22)"/><path class="cls-7" d="M134.83,650.23s-10.39,2.67-18.87,2.55-48.14,16.36-48.14,16.36-5.7,13,3.61,11.94,13.85-5.61,20.42-5.61,27.22-2.27,27.22-2.27L139,658.51Z" transform="translate(-29.26 -13.22)"/><path class="cls-7" d="M141.33,527.42,122.7,531.1l-1.21.24s-14.74-3.92-15.23-4.25S92.4,508.74,92.4,508.74s6.76.08,12.08-3a4.65,4.65,0,0,0,.56-.34,11.72,11.72,0,0,0,5-6.15c.09-.27.18-.55.26-.84a16.66,16.66,0,0,0-.16-8c-1.8-7.6,2.37-9.69,7.94-9.51,8,.26,19,5.28,19,5.28a22.12,22.12,0,0,0,1.72,7.43c.09.23.19.45.28.67a21.26,21.26,0,0,0,9.9,10.38l.59.29a18.12,18.12,0,0,0,1.87.8C165.64,511.11,141.33,527.42,141.33,527.42Z" transform="translate(-29.26 -13.22)"/><path class="cls-6" d="M139.09,494.26a23.48,23.48,0,0,1-29,5,15.83,15.83,0,0,0,.1-8.87c-4.4-18.59,26.91-4.23,26.91-4.23A22.69,22.69,0,0,0,139.09,494.26Z" transform="translate(-29.26 -13.22)"/><path class="cls-7" d="M145,477.74a23.48,23.48,0,0,1-22.06,23.44h-1.42A23.49,23.49,0,1,1,145,477.68Z" transform="translate(-29.26 -13.22)"/><path class="cls-6" d="M141.33,527.42,122.7,531.1l-1.21.24s-14.74-3.92-15.23-4.25S92.4,508.74,92.4,508.74s6.76.08,12.08-3a4.65,4.65,0,0,0,.56-.34,21.88,21.88,0,0,0,15.9,7,23.1,23.1,0,0,0,3.32-.27c2.62-.4,5.26-.66,7.9-.93,5.05-.53,12.78-2.06,16.83-6.53l.59.29a18.12,18.12,0,0,0,1.87.8C165.64,511.11,141.33,527.42,141.33,527.42Z" transform="translate(-29.26 -13.22)"/><path class="cls-3" d="M162.38,575.05c.16,3.59,2.77,44,2.77,44H83.76l.55-25.47.44-20.37.15-6.68.65-23.16-2.35-2-12.82-11.3h0c.1-.31,3.57-10.62,3.09-12.07s6.2-7.34,8.48-7.66a28.66,28.66,0,0,0,3.83-1.17c3.85-1.35,9-3.34,9.55-3,.8.43,8.8-.31,9.14-.35h0a21.75,21.75,0,0,0,16.47,7.55,20.54,20.54,0,0,0,3.32-.26c2.62-.4,5.26-.66,7.9-.93,5.3-.56,13.55-2.22,17.42-7.22a25.43,25.43,0,0,1,5.46,1.17,31.37,31.37,0,0,0,8,1.1,41.09,41.09,0,0,1,6.2,2.28,41.44,41.44,0,0,0,5.87,2.28s3.75,1,4.73,10.44,2,14.85,2,14.85l-19.41,16.8S162.21,571.46,162.38,575.05Z" transform="translate(-29.26 -13.22)"/><polygon class="cls-7" points="41.12 590.04 43.97 594.61 54.66 598.38 62 584.99 55.23 580.42 44.38 576.18 38.19 579.77 41.12 590.04"/><path class="cls-5" d="M161.56,625.78s15.17-1.15,21.37-8.16,21.85-10.76,21.85-10.76,37.68-4.41,22.84,28.87c0,0-1,3.75-2.94,4.89S218,644.7,218,644.7l-57.9-5.06Z" transform="translate(-29.26 -13.22)"/><path class="cls-6" d="M191.25,649.18a18,18,0,0,1-3,10c-9.74.87-31.31,2.9-35.82,4.15-5.55,1.54-16.77-1.14-18-1.44h-.11s-2.16-6.56-3.19-10.76c-.47-1.9-.7-3.32-.4-3.43,1-.32,10-2.77,9.79-1.39s26.91-10.52,26.91-10.52l.83,10.44C171,649.35,191.25,644.65,191.25,649.18Z" transform="translate(-29.26 -13.22)"/><path class="cls-5" d="M219.14,640.46,218,644.7a33.66,33.66,0,0,1-9.14,7.17c-5.38,2.78-14.84,7.34-14.84,7.34s-34.74,2.94-40.62,4.57-18.1-1.43-18.1-1.43-4.57-13.86-3.59-14.19,9.95-2.77,9.79-1.38,26.91-10.52,26.91-10.52Z" transform="translate(-29.26 -13.22)"/><path class="cls-7" d="M122.41,689.46s17.08,1.2,21.14,2.75,33.07-.6,33.07-.6,18.75.37,24.12,2,3.46-16.42-6.45-18.45-23.88,1-23.88,1l-17.67-2.37c-1.91-.24-14.5.12-14.5.12Z" transform="translate(-29.26 -13.22)"/><path class="cls-6" d="M55.31,632s22.57,2,28.77,5.73Z" transform="translate(-29.26 -13.22)"/><path class="cls-6" d="M196.08,617.2s-17.67,4.3-24.59,10.63Z" transform="translate(-29.26 -13.22)"/><path class="cls-6" d="M56.62,626.87c.36.12,10.39,1.44,10.15,2.39S56.62,626.87,56.62,626.87Z" transform="translate(-29.26 -13.22)"/><path class="cls-6" d="M40.86,652l1.3,4.89s2.94,2.28,3.59,3.43,4.41,1.46,4.41,1.46,3.91,1.8,4.89,2.78,11.58,4.07,21.53,5.38,28.38,3.75,32.3,5a46.2,46.2,0,0,0,8.48,1.8s7.34,3.91,11.25,2.93S139.21,661,139.21,661s-25.77-6-26.58-8-25.63-11-25.63-11l-14.68.35Z" transform="translate(-29.26 -13.22)"/><path class="cls-5" d="M39.88,652.53l1.31,4.89a21.48,21.48,0,0,1,3.58,3.42c.66,1.15,4.41,1.47,4.41,1.47s3.91,1.8,4.89,2.78,11.58,4.07,21.53,5.38,28.38,3.75,32.3,5a46.2,46.2,0,0,0,8.48,1.8s7.34,3.91,11.25,2.93,10.61-18.75,10.61-18.75-25.78-6-26.59-8-37.19-16.8-37.19-16.8L63,634.09Z" transform="translate(-29.26 -13.22)"/><path class="cls-3" d="M73.23,528.4,70.38,530l-5.5,37.52s-2.91,2.77-2,4.56-.17,4.9-.17,4.9-4.91,2.12-3.82,3.42.59,3.75-.16,5.38-2,4.57,0,5.06.34,6.85.34,6.85,6.88-.78,6.38,3.26c-.21,1.63,7.78,6.85,7.78,6.85s-9.08-16.48,11.26-14.19l1.75-9.28s1.75-5.23,0-6.86.4-9.38.4-9.38L87,534.44Z" transform="translate(-29.26 -13.22)"/><path class="cls-6" d="M68.8,576.85c.36.59,11.34,1.81,12.06,3.77S68.8,576.85,68.8,576.85Z" transform="translate(-29.26 -13.22)"/><path class="cls-6" d="M65.34,586.16s1.49-4.66,5-3.82S65.34,586.16,65.34,586.16Z" transform="translate(-29.26 -13.22)"/><path class="cls-6" d="M63.43,593s2.63-6.2,6.21-5.73S63.43,593,63.43,593Z" transform="translate(-29.26 -13.22)"/><path class="cls-7" d="M182.93,592.83l-1.14,6.85S170,621.21,167.92,621.54s-13.7-14.36-13.7-14.36l-3.1-14.35,12.2-2.31,5.42-5.36S182.44,586.47,182.93,592.83Z" transform="translate(-29.26 -13.22)"/><path class="cls-3" d="M177.38,534l4.41,3.1v16.47s3.42-.33,2.6,1.47-2.44,2.77-1,4.4,1.14,4.73-.17,5.06-3.59,1.63-1.46,2.44,3.42,2.29,3.42,3.27a5.84,5.84,0,0,1-.65,3.58c-.82,1.15-1.63,3.76-.65,4.73s-.82,6-.82,6,3.1,8,.16,10.28c0,0-1.3,4.56-1.46,4.89,0,0,2.05-15.88-18.47-9.16l-.52-8.3c-.14-2.24,1.77-2.9.72-4.23s-3.7-4.41-2.45-5.22.82-2.29.33-3.43-2.22-1.14-.66-2.53,2.49-2.69,1.57-3.34-2.51-2.78-1.24-3.75,1.31-15.17,1.31-15.17S167.59,523.67,177.38,534Z" transform="translate(-29.26 -13.22)"/><path class="cls-6" d="M175.31,562s6.27-1.7,6.48,0S175.31,562,175.31,562Z" transform="translate(-29.26 -13.22)"/><path class="cls-6" d="M168.26,566.7s8.6-2.15,9.67-.48S168.26,566.7,168.26,566.7Z" transform="translate(-29.26 -13.22)"/><path class="cls-6" d="M166.35,571.23s12.9-1.79,13.73.84S166.35,571.23,166.35,571.23Z" transform="translate(-29.26 -13.22)"/><path class="cls-6" d="M168.26,576.85c.48.11,12.42,1,12.66,3.22S168.26,576.85,168.26,576.85Z" transform="translate(-29.26 -13.22)"/><rect class="cls-8" x="43.08" y="570.97" width="102.25" height="58.08" rx="10.47"/><circle class="cls-9" cx="94.21" cy="600.01" r="3.77"/><path class="cls-6" d="M89.47,548.6s9.8,7.49,17.37,1.78C106.84,550.35,94,551.55,89.47,548.6Z" transform="translate(-29.26 -13.22)"/><path class="cls-6" d="M139.09,550.62s9.8,7.49,17.38,1.78C156.47,552.4,143.66,553.56,139.09,550.62Z" transform="translate(-29.26 -13.22)"/><path class="cls-6" d="M145,477.74a23.32,23.32,0,0,1-3.55,12.43,35.87,35.87,0,0,0-5.3-18.55c-3.26-5-13.16-13.78-20-11.33a4.86,4.86,0,0,0-3,3.2c-.67,2.56,1.31,3.63,2.57,5.67a17.41,17.41,0,0,1,2.38,11.72,14.58,14.58,0,0,1-.35,1.62c-1.07,4-3.52,8.63-1,11.93,1.77,2.3,5.56,3.09,6.08,5.95a3.57,3.57,0,0,1,0,.8c-.12,1.92-1.76,3.62-2.47,5.5-.85,2.23-.37,4.43.5,6.66,1.13,2.92,2.94,5.86,3.38,8.93s-.51,5.93-1.62,8.83a39.1,39.1,0,0,0-2.7,8.3c-.78,5.42,1.2,11.69-2.21,16a2.31,2.31,0,0,1-1.49,1c-2.19.23-1.81-3.69-3.57-5,.18,2.29.36,4.67-.47,6.81s-3,3.94-5.25,3.59c-.26-1.71-.52-3.42-.77-5.13a14.8,14.8,0,0,1-5.44,3.4,39.77,39.77,0,0,1,5.67-15.35c-5.74,2.77-9.09,8.75-12.08,14.38-1.87,3.52-3.79,7.37-3.14,11.3.26,1.6,1,3.12,1.1,4.73s-.43,3.5-1.93,4.11a3.5,3.5,0,0,1-3.79-1.17l-.16-.2-.26-.36a5.93,5.93,0,0,1-.43-.78,14.87,14.87,0,0,1-.92-3l-.11-.44c-1.51-6.67-2.88-13.54-1.77-20.29.41-2.48,1.16-4.94,1.07-7.46a13.59,13.59,0,0,0-.85-4.17c-1.33-3.73-3.9-7.16-5.36-10.91v-.09c-.77-2-1.15-4.47.27-6.07a12.28,12.28,0,0,1,2.72-1.84c2.84-1.85,4.12-5.36,4.63-8.71a29.16,29.16,0,0,0,.36-4.58c3.85-1.35,9-3.34,9.55-3,.8.43,8.8-.31,9.14-.35a11.88,11.88,0,0,0,5.6-6.49c.09-.27.18-.55.26-.84A23.49,23.49,0,1,1,145,477.74Z" transform="translate(-29.26 -13.22)"/><path class="cls-8" d="M117.77,481.52c-1.07,4-3.52,8.63-1,11.93,1.77,2.3,5.56,3.09,6.08,5.95.4,2.26-1.61,4.16-2.42,6.31-1.94,5.12,3.11,10.16,3.87,15.58.84,5.89-3.45,11.25-4.31,17.13-.78,5.42,1.2,11.69-2.21,16a2.34,2.34,0,0,1-1.49,1c-2.19.23-1.82-3.7-3.57-5,.19,2.28.36,4.66-.47,6.8s-3,3.95-5.25,3.59l-.77-5.13a14.8,14.8,0,0,1-5.44,3.4,39.94,39.94,0,0,1,5.67-15.35c-5.74,2.77-9.09,8.75-12.08,14.38-1.87,3.52-3.79,7.37-3.14,11.29.26,1.61,1,3.13,1.1,4.74s-.43,3.5-1.93,4.11a3.56,3.56,0,0,1-4-1.36,10.34,10.34,0,0,1-1.61-4.15c-1.56-6.8-3-13.83-1.88-20.73.41-2.48,1.16-4.94,1.07-7.46-.2-5.51-4.26-10-6.25-15.16-.77-2-1.14-4.48.28-6.08a12.34,12.34,0,0,1,2.73-1.84c2.83-1.85,4.11-5.36,4.63-8.71a30.21,30.21,0,0,0-.31-10.89c-1.15-5.37-3.77-10.6-3.12-16s4.31-9.77,6.77-14.57a34.43,34.43,0,0,0,3.5-20.15c-.43-3.21-1.17-6.94,1-9.34,2.62-2.88,7.69-1.8,10.68-4.3,1.46-1.22,2.17-3.09,3.25-4.66a11.44,11.44,0,0,1,12.19-4.35c2,.59,3.9,1.76,5.93,2.42,2.87.93,6,.81,9,1.17s6.16,1.37,7.88,3.84c.92,1.31,1.33,2.92,2.17,4.28,1.8,2.92,5.24,4.32,7.84,6.56A15.23,15.23,0,0,1,156.39,463c-1.55,4.33-5.14,8.15-4.84,12.73.13,1.89.93,3.73.67,5.6-.72,5.2-8.26,6.23-10.87,10.79.21-7.47-1.22-15.16-5.3-21.41-3.26-5-13.16-13.78-20-11.34a4.86,4.86,0,0,0-3,3.2c-.67,2.56,1.3,3.63,2.57,5.67A17.27,17.27,0,0,1,117.77,481.52Z" transform="translate(-29.26 -13.22)"/><g class="cls-10"><path d="M85.78,507.35a29.93,29.93,0,0,0-.65-7c-1-4.56-3-9-3.2-13.61-.26,5.1,2.12,10,3.2,15.08A29.4,29.4,0,0,1,85.78,507.35Z" transform="translate(-29.26 -13.22)"/><path d="M105.22,544.42c.4-.73.81-1.45,1.25-2.15-5.74,2.76-9.09,8.75-12.08,14.38-1.73,3.25-3.5,6.79-3.24,10.42.22-3.11,1.75-6.14,3.24-9C97.16,552.91,100.23,547.4,105.22,544.42Z" transform="translate(-29.26 -13.22)"/><path d="M92.33,573.92a3.48,3.48,0,0,1-1.91,2.87,3.57,3.57,0,0,1-4-1.37,10.3,10.3,0,0,1-1.61-4.14,74.08,74.08,0,0,1-2.27-14.81c-.11,5.44,1,10.93,2.27,16.28a10.3,10.3,0,0,0,1.61,4.14,3.55,3.55,0,0,0,4,1.36c1.5-.61,2.09-2.49,1.94-4.11Z" transform="translate(-29.26 -13.22)"/><path d="M118.3,476.62a15.57,15.57,0,0,1-.53,3.47c-.79,3-2.34,6.28-2.06,9.13.22-2.48,1.4-5.18,2.06-7.67A16.37,16.37,0,0,0,118.3,476.62Z" transform="translate(-29.26 -13.22)"/><path d="M92.56,454.84a33.58,33.58,0,0,0-.28-5.2c-.17-1.27-.38-2.62-.45-3.94a30.55,30.55,0,0,0,.45,5.41A33.43,33.43,0,0,1,92.56,454.84Z" transform="translate(-29.26 -13.22)"/><path d="M122.86,499.43v-.11c-.35,1.7-1.75,3.25-2.39,4.95a6.94,6.94,0,0,0-.4,3.19,6.42,6.42,0,0,1,.4-1.72C121.25,503.59,123.26,501.69,122.86,499.43Z" transform="translate(-29.26 -13.22)"/><path d="M84.05,543.08c-.2-5.51-4.26-10-6.24-15.16a9.85,9.85,0,0,1-.64-2.51,8.3,8.3,0,0,0,.64,4c2,5.05,5.9,9.5,6.22,14.89C84.05,543.88,84.06,543.48,84.05,543.08Z" transform="translate(-29.26 -13.22)"/><path d="M136.13,469.21c-3.26-5-13.17-13.78-20-11.34a4.84,4.84,0,0,0-3,3.2,3.58,3.58,0,0,0-.06,1.72,1.29,1.29,0,0,1,.06-.25,4.84,4.84,0,0,1,3-3.2c6.81-2.44,16.72,6.33,20,11.34,3.69,5.66,5.2,12.51,5.3,19.29C141.54,482.71,140.08,475.29,136.13,469.21Z" transform="translate(-29.26 -13.22)"/><path d="M152.29,479.83c-.71,5.19-8.23,6.23-10.85,10.76v1.5c2.61-4.55,10.15-5.59,10.87-10.79a6.61,6.61,0,0,0,0-1.54A.41.41,0,0,1,152.29,479.83Z" transform="translate(-29.26 -13.22)"/><path d="M156.46,461.51c-1.55,4.32-5.14,8.14-4.84,12.73v.2c.33-4,3.41-7.55,4.81-11.47a14.09,14.09,0,0,0,.8-5.58A14,14,0,0,1,156.46,461.51Z" transform="translate(-29.26 -13.22)"/><path d="M117.79,553a2.34,2.34,0,0,1-1.49,1c-2.19.23-1.81-3.7-3.57-5,0,.52.08,1,.11,1.57,1.62,1.41,1.33,5.14,3.46,4.92a2.34,2.34,0,0,0,1.49-1c2-2.45,2.14-5.54,2.09-8.75C119.83,548.35,119.44,550.89,117.79,553Z" transform="translate(-29.26 -13.22)"/><path d="M112.26,555.75c-.82,2.14-3,4-5.24,3.59l-.78-5.13a14.8,14.8,0,0,1-5.16,3.3c-.1.52-.2,1-.28,1.57a14.8,14.8,0,0,0,5.44-3.4l.78,5.13c2.26.36,4.42-1.45,5.24-3.59a11.42,11.42,0,0,0,.61-4.64A9.75,9.75,0,0,1,112.26,555.75Z" transform="translate(-29.26 -13.22)"/><path d="M120,537a26.23,26.23,0,0,0-.2,4.15,20.14,20.14,0,0,1,.2-2.68c.81-5.61,4.74-10.75,4.39-16.31C124.08,527.16,120.75,531.88,120,537Z" transform="translate(-29.26 -13.22)"/></g><path class="cls-1" d="M739,125.28v98.18c0,5.18-5,9.4-11.17,9.4H491.42c-6.17,0-11.17-4.22-11.17-9.4V125.28c0-5.2,5-10.49,11.17-10.49H727.83C734,114.79,739,120.08,739,125.28Z" transform="translate(-29.26 -13.22)"/><path class="cls-2" d="M739,126v27.39H480.25V126a11.18,11.18,0,0,1,11.17-11.17H727.83A11.18,11.18,0,0,1,739,126Z" transform="translate(-29.26 -13.22)"/><circle class="cls-1" cx="465.18" cy="120.85" r="7.47"/><circle class="cls-1" cx="516.17" cy="134.07" r="7.47" transform="matrix(0.16, -0.99, 0.99, 0.16, 271.88, 608.88)"/><circle class="cls-1" cx="508.64" cy="120.85" r="7.47"/><circle class="cls-3" cx="658.78" cy="179.25" r="29.2"/><rect class="cls-3" x="473.35" y="159.59" width="123.14" height="4.35"/><rect class="cls-2" x="473.35" y="170.19" width="123.14" height="4.35"/><rect class="cls-2" x="473.35" y="180.79" width="123.14" height="4.35"/><rect class="cls-2" x="473.35" y="191.37" width="123.14" height="4.35"/><path class="cls-11" d="M263.73,323.34c6.89,4.62,17.34,2.42,17.34,2.42s15.77-7.47,20.44-7.47,16-4.62,16-4.62l-.38-3.11L316,301.18c7.19,5.6,15.17,3.67,19.1,3.26,4.22-.44,26.78-13.85,28.94-14.73a5.64,5.64,0,0,0,2-2h0a49.85,49.85,0,0,0,3.81-7h0c1.42-1.24,2.45-2.24,2.37-2.46a16.28,16.28,0,0,1,1.39-3.69,17.87,17.87,0,0,0,6.84-2.46,6,6,0,0,0,2.22-4.84s22-22.2,19.11-31.43,7.11-9.45,7.11-9.45,15.34-6.59,17.47-10.55c1.32-2.43,12.82-7.77,21.47-11.53l1.07-.46c3.36,7.37,20.42,1.7,23.78-1.42,3.55-3.29,14-4.83,14-4.83s.44-43.08,3.78-48.58c1.58-2.6,2-11.11,1.92-19.32v-.88c4.67-.91,15.78-3,20.94-3.53,3.27-.33,6.67-2.37,9.29-4.35l.3.39a6.33,6.33,0,0,0,2.85.47,4.39,4.39,0,0,0,2.49-.47c2-1.1,9.33-3.3,12-4.4s-.45-9-2.45-10.55-3.33-3.51-2.22-4.39-2.67-3.08-4.89-3.52-8.89-3.52-8.89-3.52-2.44-5-6.44-5-9.34-4-9.34-4c-.22-1.76-4.44-2-4.44-2s-16-12.3-18.67-10.77-10-2.41-10-2.41-9,1-11.11-.65h0a2.61,2.61,0,0,0-.54-1.49c-.48-1.49-2.8-3.53-5-5.23a20.85,20.85,0,0,0,.25-3.17,12.64,12.64,0,0,0-.05-1.38v-.23c.11-1,.21-2.06.32-3.09a6.35,6.35,0,0,1,.77-2.91c.38-.58.93-1,1.35-1.59a2.9,2.9,0,0,0,.27-.41l.07-.12c.06-.11.11-.22.16-.33a.37.37,0,0,0,.05-.11,4.27,4.27,0,0,0,.29-.94V49c0-.08.05-.29.06-.44v-.06a9.49,9.49,0,0,0-.5-3.77c-.67-2.08-1.71-4.08-1.82-6.25a20.4,20.4,0,0,0-.11-3.22c-.54-2.4-3-3.93-5.39-4.93-3.28-1.38-4.94-2.88-7.58-4.93-2.24-1.74-5.94-.86-8.77-.68-6.44.41-12.81,2.35-18.87,4.36a19,19,0,0,0-6.6,3.27,7.31,7.31,0,0,0-2.41,4.08h0a5.19,5.19,0,0,0-.08,1.11v.1a1.57,1.57,0,0,0,.05.42.33.33,0,0,0,0,.14,3.81,3.81,0,0,0,.12.51h0c.25.81.73,1.54,1,2.35a5.44,5.44,0,0,1,.15.54v.06l.09.53h0c.24,2-.5,4.08-.82,6.12-.05.3-.08.59-.1.88h0a10.63,10.63,0,0,0,.3,3.51h0a1.62,1.62,0,0,0,.13.41l.06.18c0,.12.09.23.13.35s.07.16.1.23.09.2.14.3l.13.25a2.71,2.71,0,0,0,.16.27l.16.26.16.24.2.25c.06.07.11.15.18.22l.23.24.18.19.28.23.19.16.34.23.17.11a3.31,3.31,0,0,0,.56.29c1.28.59,2.88.79,3.66,1.91a2.84,2.84,0,0,1,.37.88v.42a17.69,17.69,0,0,0,.11,1.93,8.27,8.27,0,0,0,0,1,3.23,3.23,0,0,0,.22.75,20,20,0,0,0,6.74,11.32c.07.34.14.74.23,1.19a22,22,0,0,1-6.47,3.38C411.52,81.62,404,88.79,404,88.79s-3.75,27-4.65,30.33-1.57,16-1.57,16-.89,5.27-2.22,7.91c-.94,1.86-.77,9.85,1.86,14.7a11.91,11.91,0,0,1-1.64,2.66c-5.33,6.16-21.33,5.94-26.67,5.94-4.91,0-6.43,3-6.63,3.45-9.77,2.77-41.4,11.8-45.15,13.44-4.44,1.94-6.89,21.13-6.89,21.13s-9.33,31.87-8.89,36.07-3.11,15.8-3.11,15.8,0,13.15-1.51,14.05h-.05c-1.55.66-1.33,7-1.33,7s1.14.34,2.93.79c-.47,3.22-2.22,7.73-3.6,10.93-.69-.88-1.37-1.25-1.77-.22-1.11,2.79-17.78,22.57-22,22.57-2,0-5.33,1.65-7.52,3.88C261.14,317.79,260.13,320.93,263.73,323.34Zm76.45-114.55c18.89,1.76,39.12-1.34,39.12-1.34s-1.56,5.51-2.89,7.71-5.12,14.73-5.12,17.37-6,25.27-7.77,26.37a6.66,6.66,0,0,0-1.94,2.8,25.72,25.72,0,0,0-1.17,3.36,14.34,14.34,0,0,0,.15,1.62c-1.33,1.22-2.73,2.5-4,3.63h0s-7.93,4.48-10.56,6.88-15.11,5.38-15.11,5.38a79.11,79.11,0,0,0-9,4.56c-3.85,2.33-7.71,5.28-8.72,8.19.44-4.91,1.15-10.82,1.62-14.59h.71c6.23-.38,5.3-6.33,5-7.8,0-.11-.05-.22-.08-.33,4.45-4.84,14.45-40.88,13.11-44.84s1.12-7.47,1.64-7.47,1.25-4.4.14-6.82S340.18,208.79,340.18,208.79Zm152.76-97-1.18.29v-.25a6.1,6.1,0,0,0,1.18,0ZM428.37,78.63c-.18.22-.36.43-.55.64l-.23.24V78.29Zm-22.26,42.64.08,1.24s-.12.75-.35,2ZM508.24,109l-3.88.66c.55-.2,1.09-.43,1.62-.68a3.74,3.74,0,0,1,1.23-.33,7.21,7.21,0,0,1,1.45.31,3.25,3.25,0,0,0-.42.11Z" transform="translate(-29.26 -13.22)"/><path class="cls-12" d="M377.08,267.79s-4.46,9.24-4.24,9.89-9.6,8.51-9.6,8.51l-10.69-7.64,1.09-5.23s12-10.81,12.87-12.06S377.08,267.79,377.08,267.79Z" transform="translate(-29.26 -13.22)"/><path class="cls-8" d="M316.12,299c7.42,7.2,16.15,5,20.29,4.58s26.28-13.74,28.41-14.62a5.63,5.63,0,0,0,1.94-2h0a49.65,49.65,0,0,0,3.75-6.92c-.15,0-7.4,2.11-9.23,0,0,0-3.06-3.75-3.71-3.75s-.05-6.57-.05-6.57-7.8,4.39-10.42,6.79-14.83,5.34-14.83,5.34a75.85,75.85,0,0,0-8.78,4.53C317.7,290,311.91,294.93,316.12,299Z" transform="translate(-29.26 -13.22)"/><path class="cls-6" d="M316.12,299c7.42,7.2,16.15,5,20.29,4.58s26.28-13.74,28.41-14.62a5.63,5.63,0,0,0,1.94-2c-2.58-1.54-19.44,9.18-24.16,11.14s-16.66.88-23.42-2c-3.38-1.41,0-5.76,4.31-9.76C317.7,290,311.91,294.93,316.12,299Z" transform="translate(-29.26 -13.22)"/><path class="cls-12" d="M317,276.33s-3.11,23.34-2.32,26.4-19.5-10.47-19.5-10.47,7.1-14.63,5-18S317,276.33,317,276.33Z" transform="translate(-29.26 -13.22)"/><path class="cls-8" d="M297.58,276.79s12.65,3.71,19.63,3.27c6.12-.38,5.2-6.28,4.88-7.74,0-.11,0-.22-.08-.33,4.37-4.8,14.18-40.57,12.87-44.5s1.09-7.41,1.61-7.41,1.23-4.37.14-6.77,4.8-4.58,4.8-4.58c18.54,1.75,38.39-1.33,38.39-1.33s-1.53,5.48-2.84,7.66-5,14.61-5,17.23-5.89,25.09-7.63,26.18a6.63,6.63,0,0,0-1.9,2.77,26.75,26.75,0,0,0-1.15,3.33c.65,14.62,17.23,8.95,19.63,7a6.43,6.43,0,0,0,.93-.95,6.07,6.07,0,0,0,1.25-3.85s21.59-22,18.76-31.19,7-9.38,7-9.38,15.05-6.54,17.14-10.47c1.29-2.41,12.58-7.71,21.08-11.44,5.32-2.33,9.55-4,9.55-4L453.1,187.6l-2.79-10-5.25-2-16.78-6.32-30.13-4.14-2.76.36-29.28,3.78s-42.79,12.17-47.11,14.1-6.76,21-6.76,21-9.16,31.63-8.73,35.79-3.09,15.62-3.09,15.62,0,13-1.48,13.93h-.05C297.37,270.44,297.58,276.79,297.58,276.79Z" transform="translate(-29.26 -13.22)"/><path class="cls-6" d="M341.43,208.71c18.54,1.75,38.39-1.33,38.39-1.33,1.31-4.12,19.64-15.46,19.64-15.46C384.42,188.21,341.43,208.71,341.43,208.71Z" transform="translate(-29.26 -13.22)"/><path class="cls-13" d="M361.28,264.55c.65,14.62,17.23,8.95,19.63,7a6.43,6.43,0,0,0,.93-.95c-5.8,2.14-16.07,3.78-19.41-9.36A26.47,26.47,0,0,0,361.28,264.55Z" transform="translate(-29.26 -13.22)"/><path class="cls-13" d="M297.58,276.79s12.65,3.71,19.63,3.27c6.12-.38,5.2-6.28,4.88-7.74-6.4-.2-17.43-.81-23.15-2.54h-.05C297.37,270.44,297.58,276.79,297.58,276.79Z" transform="translate(-29.26 -13.22)"/><path class="cls-6" d="M361.28,264.55c.65,14.62,17.23,8.95,19.63,7a6.43,6.43,0,0,0,.93-.95c-5.8,2.14-16.07,3.78-19.41-9.36A26.47,26.47,0,0,0,361.28,264.55Z" transform="translate(-29.26 -13.22)"/><path class="cls-6" d="M297.58,276.79s12.65,3.71,19.63,3.27c6.12-.38,5.2-6.28,4.88-7.74-6.4-.2-17.43-.81-23.15-2.54h-.05C297.37,270.44,297.58,276.79,297.58,276.79Z" transform="translate(-29.26 -13.22)"/><path class="cls-8" d="M266.39,322.36c6.76,4.58,17,2.4,17,2.4s15.48-7.42,20.06-7.42,15.73-4.55,15.73-4.55l-.38-3.09L317,294.9s-17-.43-17.67-2c0,0-3.06-7.51-4.15-4.74s-17.45,22.41-21.59,22.41c-2,0-5.24,1.63-7.39,3.84C263.85,316.85,262.85,320,266.39,322.36Z" transform="translate(-29.26 -13.22)"/><path class="cls-6" d="M325.07,193.44s14.18,9,10.25,10.91S325.07,193.44,325.07,193.44Z" transform="translate(-29.26 -13.22)"/><path class="cls-6" d="M319.18,210.68s12.21,11.59,7.63,11.9S319.18,210.68,319.18,210.68Z" transform="translate(-29.26 -13.22)"/><path class="cls-6" d="M306.09,247.54s6.2,11.66,3.86,13.68S306.09,247.54,306.09,247.54Z" transform="translate(-29.26 -13.22)"/><path class="cls-6" d="M374.36,259.32c-2.18,2.18,20.73-7.2,15.49-7.64S374.36,259.32,374.36,259.32Z" transform="translate(-29.26 -13.22)"/><path class="cls-12" d="M420.17,95.72l.73-.11c2.71-.41,12.55-2,21.37-3.87,2.15-.47,4.23-.95,6.14-1.46,6.76-1.77,11.29-3.68,8.41-5.24C453,83,451,79.19,449.91,75.94c-.1-.32-.2-.63-.28-.93a24.16,24.16,0,0,1-.89-5s-24.64-8.73-19.84,0c2.35,4.27.77,7.77-1.46,10.22a18.89,18.89,0,0,1-5.31,4Z" transform="translate(-29.26 -13.22)"/><path class="cls-6" d="M446.56,89s-8.81,6.33-17.82,1.09S408,136.3,408,136.3l-12.22,30.1s-7.91,6.54,1.93,9.38,31.7-2.84,37.24,5.45S451,190.79,452,190.79s5.23-31.2,5.23-31.2l1.08-45.15Z" transform="translate(-29.26 -13.22)"/><path class="cls-14" d="M398.11,174c9.85,2.84,31.69-2.83,37.24,5.45a21.24,21.24,0,0,0,9.38,7.56,24.16,24.16,0,0,0,7.74,2c.14,0,.35-.57.59-1.56,1.53-6.31,4.64-29.63,4.64-29.63l1.08-45.06L448.41,90.33,447,87.22a18.29,18.29,0,0,1-4.49,2.18,15.81,15.81,0,0,1-13.34-1.09c-2.64-1.54-5.52,1.81-8.27,7.3-6.63,13.24-12.51,38.94-12.51,38.94l-12.21,30.1c-.29.26-.57.52-.83.8C393.61,167.27,390.36,171.79,398.11,174Z" transform="translate(-29.26 -13.22)"/><path class="cls-6" d="M445,175.55a57.33,57.33,0,0,0-.29,11.49,135.81,135.81,0,0,0,2,16.22,5.45,5.45,0,0,0,.27,1c5.32-2.33,9.55-4,9.55-4L453,187.57c1.53-6.31,4.64-29.63,4.64-29.63l1.15-45.15L448.41,90.33c6.76-1.77,11.29-3.68,8.41-5.24-4.2-2.28-6.22-6.6-7.19-10a37,37,0,0,1-6.2,6.67l-.14.11-.78,7.61-.24,2.34-.51,4.86s2.4,57.36,4.15,60.64.87,9.59-.66,17C445.17,174.67,445.09,175.1,445,175.55Z" transform="translate(-29.26 -13.22)"/><path class="cls-15" d="M446.13,173.38c-1.53,7.41-.22,19.63,1.52,29s20.29,3.27,23.78,0,13.74-4.8,13.74-4.8.44-42.75,3.71-48.21c1.55-2.58,1.93-11,1.89-19.18,0-7.32-.39-14.41-.53-16.82v-.86s14.18-24,14-25.74-4.36-2-4.36-2-15.71-12.22-18.33-10.69-9.81-2.4-9.81-2.4-9.12,1-11-.72a1,1,0,0,1-.33-.81c.21-2.79-9.3-8.75-9.59-8.94,8,7.22-5,18.33-6.42,19.54l-.14.12-1.52,14.8s2.4,57.37,4.14,60.64S447.65,166,446.13,173.38Z" transform="translate(-29.26 -13.22)"/><circle class="cls-13" cx="417.71" cy="97.84" r="1.09"/><path class="cls-6" d="M444.74,81.68l6.62,6.41,9.72-16.21a1,1,0,0,1-.34-.8c.22-2.8-9.29-8.76-9.59-8.94C459.17,69.35,446.21,80.46,444.74,81.68Z" transform="translate(-29.26 -13.22)"/><circle class="cls-6" cx="419.89" cy="132.74" r="1.09"/><circle class="cls-13" cx="419.89" cy="132.3" r="1.09"/><path class="cls-15" d="M444.3,80.79l6.63,6.42L460.64,71a1,1,0,0,1-.33-.81c.21-2.79-9.3-8.75-9.59-8.94C458.73,68.48,445.77,79.59,444.3,80.79Z" transform="translate(-29.26 -13.22)"/><rect class="cls-8" x="429.35" y="118.4" width="32.08" height="15.18" rx="1.7" transform="translate(279.98 555.16) rotate(-88.69)"/><rect class="cls-6" x="429.35" y="118.4" width="32.08" height="15.18" rx="1.7" transform="translate(279.98 555.16) rotate(-88.69)"/><rect class="cls-8" x="429.44" y="119.11" width="32.08" height="15.18" rx="1.7" transform="translate(279.36 555.94) rotate(-88.69)"/><circle class="cls-15" cx="416.6" cy="106.85" r="2.39"/><path class="cls-6" d="M363.68,171.41c5.45,2.4,41.22-3.92,46.46-5.45s12.87-13.31,9.16-21.81,1.31-16.8,1.31-16.8,7.85-16.79,9.59-20.07a151.29,151.29,0,0,0,5.89-14.39,1.31,1.31,0,0,0-.31-1c-1.41-2.16-6.88-6-6.88-6-1.54.56-1.74-3.85-1.68-7.1,0-1.81.15-3.26.15-3.26s-.73.74-1.91,1.74c-.43.36-.92.77-1.47,1.18a22.35,22.35,0,0,1-6.87,3.76c-5.24,1.54-12.65,8.7-12.65,8.7l2.18,33.49s-5,31.51-10.26,37.61-20.94,5.89-26.17,5.89S363.68,171.41,363.68,171.41Z" transform="translate(-29.26 -13.22)"/><path class="cls-15" d="M363.24,170.1c5.45,2.4,41.23-3.92,46.46-5.45s12.87-13.3,9.16-21.81,1.31-16.8,1.31-16.8,7.85-16.79,9.6-20.06a155.15,155.15,0,0,0,5.89-14.4,1.31,1.31,0,0,0-.31-1c-1.42-2.16-6.89-6-6.89-6-1.54.56-1.73-3.85-1.67-7.09,0-1.82.14-3.27.14-3.27S426.21,75,425,76c-.44.37-.93.77-1.47,1.18a22.52,22.52,0,0,1-6.88,3.76C411.45,82.45,404,89.6,404,89.6l2.18,33.5s-5,31.5-10.25,37.61-20.94,5.88-26.18,5.88S363.24,170.1,363.24,170.1Z" transform="translate(-29.26 -13.22)"/><path class="cls-6" d="M422.57,75.12s.2,1.15.55,2.91c1.17,6,4,19.07,6,18.57,1.45-.37,3.9-2.93,5.8-5.15-1.42-2.16-6.89-6-6.89-6-1.54.56-1.73-3.85-1.67-7.09l-1.76-1.52Z" transform="translate(-29.26 -13.22)"/><path class="cls-15" d="M423,74.24s.2,1.15.55,2.92c1.17,6,4,19.07,6,18.56,1.45-.36,3.9-2.92,5.8-5.14-1.42-2.16-6.89-6-6.89-6-1.54.56-1.73-3.85-1.67-7.09L425,76Z" transform="translate(-29.26 -13.22)"/><path class="cls-12" d="M409.05,138.48s10.9-2.18,14-7,23.82-8.95,21.29-3.93S423,149,423,149l-8.13,11.64L404,157.89,399.43,149Z" transform="translate(-29.26 -13.22)"/><path class="cls-6" d="M434.85,150.92s-10.56,3.93-12.15,9.16S434.85,150.92,434.85,150.92Z" transform="translate(-29.26 -13.22)"/><path class="cls-6" d="M441.33,157s1,5.45-12.28,5Z" transform="translate(-29.26 -13.22)"/><path class="cls-6" d="M498.48,87.22l4.8-.44s5.23,3.93,9.16,3.93,6.32,5,6.32,5,6.55,3.06,8.73,3.49,5.89,2.62,4.8,3.49.21,2.84,2.18,4.37,5,9.38,2.4,10.47-9.82,3.27-11.78,4.36a5.34,5.34,0,0,1-4.36,0s-11.56-15-17.45-12.22-14,2.84-14,2.84L483,99.21Z" transform="translate(-29.26 -13.22)"/><path class="cls-15" d="M398.11,159a5.82,5.82,0,0,0,4.06,2.83,30.73,30.73,0,0,0,12.71-1.18s-22-7-.82-24h-5.67l-1.89-.72.87-4.52,1.24-40.74-4.61-1s-3.69,26.83-4.57,30.1-1.54,15.92-1.54,15.92-.87,5.24-2.18,7.85C394.75,145.46,395,154.33,398.11,159Z" transform="translate(-29.26 -13.22)"/><path class="cls-6" d="M399,159a5.84,5.84,0,0,0,4.07,2.83,30.66,30.66,0,0,0,12.7-1.18s-22-7-.81-24h-5.68l-1.89-.72C404.27,141.47,399.38,151.26,399,159Z" transform="translate(-29.26 -13.22)"/><path class="cls-16" d="M398.11,159a5.82,5.82,0,0,0,4.06,2.83,30.73,30.73,0,0,0,12.71-1.18s-22-7-.82-24h-5.67l-1.89-.72C403.4,141.47,398.51,151.26,398.11,159Z" transform="translate(-29.26 -13.22)"/><path class="cls-15" d="M398.11,159a5.82,5.82,0,0,0,4.06,2.83,30.73,30.73,0,0,0,12.71-1.18s-22-7-.82-24h-5.67l-1.89-.72C403.4,141.47,398.51,151.26,398.11,159Z" transform="translate(-29.26 -13.22)"/><path class="cls-6" d="M427.44,80.21a19.86,19.86,0,0,0,22.47-4.27c-.1-.32-.2-.63-.28-.93a24.16,24.16,0,0,1-.89-5s-24.64-8.73-19.84,0C431.25,74.26,429.67,77.79,427.44,80.21Z" transform="translate(-29.26 -13.22)"/><path class="cls-12" d="M415.81,61.26v.19a11,11,0,0,0,.11,1.91,17.54,17.54,0,0,0,.27,1.79,19.85,19.85,0,0,0,38.24,2.56c.13-.38.26-.77.36-1.16a19.68,19.68,0,0,0,.72-5.29,12.46,12.46,0,0,0-.05-1.37,19.85,19.85,0,0,0-39.65,1.37Z" transform="translate(-29.26 -13.22)"/><path class="cls-6" d="M415.81,61.45a8.79,8.79,0,0,1,.11,1.91,8.27,8.27,0,0,0,.05,1,2.71,2.71,0,0,0,.22.75c.8,1.88,3.42,3.1,5.14,1.89a5.43,5.43,0,0,0,1.55-2c1.84-3.41,4.39-7.33,8.4-7.4a20.61,20.61,0,0,1,5,1.12c1.68.43,3.62.47,4.86-.66.94-.86,1.39-2.34,2.67-2.65s2.44.87,3,2,1.05,2.49,2.23,3.08c.53.26,1.14.33,1.66.61,2.37,1.3,1.28,5.85,3.74,6.59a1.05,1.05,0,0,0,.24.06l.12-1.22c.22-2.22.45-4.43.67-6.66a19.85,19.85,0,0,0-39.65,1.37Z" transform="translate(-29.26 -13.22)"/><path class="cls-8" d="M451.07,31.63c2.33,1,4.76,2.51,5.28,4.89a19.07,19.07,0,0,1,.11,3.2c.11,2.15,1.14,4.14,1.79,6.2s.89,4.46-.42,6.21c-.41.55-.95,1-1.32,1.58a6.35,6.35,0,0,0-.76,2.89l-1.08,10.73c-2.77-.51-1.54-5.31-4-6.65-.51-.28-1.12-.35-1.65-.61-1.18-.59-1.64-1.94-2.23-3.08s-1.73-2.31-3-2-1.72,1.78-2.66,2.65c-1.24,1.12-3.21,1.07-4.86.65s-3.26-1.14-5-1.12c-4,.07-6.57,4-8.4,7.4a5.33,5.33,0,0,1-1.55,2c-1.94,1.37-5-.35-5.36-2.64-.18-1.28.21-2.71-.52-3.79s-2.34-1.32-3.59-1.9c-3.19-1.47-4.18-5.45-3.65-8.79.38-2.4,1.34-4.88.56-7.19-.27-.8-.74-1.53-1-2.33-.7-2.25.44-4.73,2.24-6.32a18.57,18.57,0,0,1,6.48-3.25c5.95-2,12.19-3.92,18.52-4.33,2.77-.18,6.41-1.05,8.61.68C446.22,28.79,447.84,30.26,451.07,31.63Z" transform="translate(-29.26 -13.22)"/><circle class="cls-6" cx="416.62" cy="80.6" r="1.09"/><circle class="cls-13" cx="416.62" cy="80.17" r="1.09"/><circle class="cls-6" cx="423.6" cy="149.09" r="1.09"/><circle class="cls-13" cx="423.6" cy="148.66" r="1.09"/><circle class="cls-6" cx="419.89" cy="167.2" r="1.09"/><circle class="cls-13" cx="419.89" cy="166.76" r="1.09"/><path class="cls-6" d="M411.66,111.06s-2.4,16.29,0,19.13S411.66,111.06,411.66,111.06Z" transform="translate(-29.26 -13.22)"/><path class="cls-6" d="M483,141.31s4.58,9.87,0,19.33S475.58,174,477.11,180,483,141.31,483,141.31Z" transform="translate(-29.26 -13.22)"/><path class="cls-6" d="M266.39,322.36c6.76,4.58,17,2.4,17,2.4s15.48-7.42,20.06-7.42,15.73-4.55,15.73-4.55l-.38-3.09c-4.52.87-14.79,2.95-16,4-1.53,1.31-20.29,7.64-20.29,7.64s-12.77-1.6-16.33-6.85C263.85,316.85,262.85,320,266.39,322.36Z" transform="translate(-29.26 -13.22)"/><g class="cls-17"><path d="M456.46,38v0Z" transform="translate(-29.26 -13.22)"/><path d="M411.86,56.53c1.25.57,2.83.78,3.59,1.89s.34,2.51.52,3.79c.34,2.29,3.42,4,5.36,2.65a5.33,5.33,0,0,0,1.55-2c1.83-3.4,4.39-7.32,8.4-7.39a21.07,21.07,0,0,1,5,1.11c1.68.42,3.62.48,4.86-.65.94-.86,1.39-2.34,2.66-2.65s2.45.86,3,2,1.05,2.48,2.23,3.07c.53.26,1.14.34,1.65.62,2.45,1.34,1.22,6.13,4,6.65l1.08-10.74a6.38,6.38,0,0,1,.76-2.89c.37-.57.91-1,1.32-1.57a4.78,4.78,0,0,0,.89-2.31,5.52,5.52,0,0,1-.89,4c-.41.55-.95,1-1.32,1.58a6.35,6.35,0,0,0-.76,2.89l-1.08,10.73c-2.77-.51-1.54-5.31-4-6.65-.51-.28-1.12-.35-1.65-.61-1.18-.59-1.64-1.94-2.23-3.08s-1.73-2.31-3-2-1.72,1.78-2.66,2.65c-1.24,1.12-3.21,1.07-4.86.65s-3.26-1.14-5-1.12c-4,.07-6.57,4-8.4,7.4a5.33,5.33,0,0,1-1.55,2c-1.94,1.37-5-.35-5.36-2.64-.18-1.28.21-2.71-.52-3.79s-2.34-1.32-3.59-1.9c-2.92-1.34-4-4.79-3.75-7.92C408.33,52.94,409.48,55.43,411.86,56.53Z" transform="translate(-29.26 -13.22)"/><path d="M407.78,38.21c.25.8.72,1.53,1,2.33a7,7,0,0,1,.25,2.87,6.24,6.24,0,0,0-.25-1.12c-.27-.8-.74-1.53-1-2.33a4.88,4.88,0,0,1-.13-2.28C407.69,37.86,407.73,38,407.78,38.21Z" transform="translate(-29.26 -13.22)"/></g><path class="cls-6" d="M471.87,135.2c5-1.1,16.79-4.58,16.79-4.58l2.11-.42c0-7.32-.39-14.41-.53-16.82h0s-10,3.27-12.43,5-9.82,1.31-9.82,1.31-11.56.65-21.16,11.34S466.85,136.3,471.87,135.2Z" transform="translate(-29.26 -13.22)"/><path class="cls-12" d="M520.89,115.73a2.93,2.93,0,0,1,1.45,3.86,2.85,2.85,0,0,1-.79,1c-2.66,2.2-6.54,4.83-10.24,5.21-6.18.62-21,3.6-22.53,3.9l-.23.06c-1.23.36-12,3.5-16.68,4.53-5,1.1-34.69,6.56-25.09-4.13a34,34,0,0,1,21-11.33h.38c1.12.06,7.46.27,9.65-1.31a20.87,20.87,0,0,1,3.6-1.8,69.94,69.94,0,0,1,14.75-4.25l10.26-1.79a3,3,0,0,1,1.73.22Z" transform="translate(-29.26 -13.22)"/><path class="cls-15" d="M499.35,87.22l4.8-.44s5.23,3.93,9.16,3.93,6.33,5,6.33,5,6.54,3.06,8.72,3.49,5.89,2.62,4.8,3.49.22,2.84,2.18,4.37,5,9.38,2.4,10.47-9.82,3.26-11.74,4.37a5.34,5.34,0,0,1-4.36,0S510,106.85,504.15,109.68s-14,2.84-14,2.84l-6.33-13.31Z" transform="translate(-29.26 -13.22)"/><path class="cls-18" d="M806.88,623.35l-27.67-40.12s-.51-9.93-2.32-12.25-.39-7.49-.39-7.49,1.94-2.83.26-3.09-.26-6.58-.26-6.58l-.13-10.06s1.55-9.68.26-12a3.8,3.8,0,0,1,.13-4.13s1.55-5.54,0-7-1.17-10.06-.78-16.9S773.26,493,773.26,492s-10.21-11.09-10.21-12-6.47-4.64-10.35-5.67-5.81-1.81-5.68-2.32-6.08-2.58-6.08-2.58-5.43-.39-7.5-3.1-8.4-3.49-8.58-3.52l-.12-.54a4,4,0,0,0-.11-.58c.48-.82.94-1.66,1.35-2.53.12-.26.24-.52.35-.79a11,11,0,0,0,6.37-2,8.65,8.65,0,0,0,3.1-6.19,13.46,13.46,0,0,0-1.52-6.87c-1.13-2.32-2.8-4.73-2.22-7.25.25-1.09.9-2,1.23-3.11a8.12,8.12,0,0,0-.92-6.11c-1-1.87-2.35-3.52-3.44-5.33A21.22,21.22,0,0,1,726.2,414a11.28,11.28,0,0,0-1-4.11,7.71,7.71,0,0,0-2.26-2.29,22.8,22.8,0,0,0-13.9-4.21c-3.52.12-7,1.07-10.53.64a37.23,37.23,0,0,1-6.14-1.61c-4.34-1.28-9.34-1.81-13.12.67s-5.28,7.37-7.84,11.19c-2.26,3.37-5.57,6.2-7.3,9.78l.06-.21a12.33,12.33,0,0,0-1,2.61c-.66,2.81-.11,5.75.57,8.56.35,1.44.83,3,2.09,3.82s3,.62,4.52.88c-.06.25-.12.49-.17.74a29.5,29.5,0,0,0,20.5,34.45v.79a19.55,19.55,0,0,1-.14,2.21h0s-13-2.67-16.49-.86-10.35,3.22-11.38,4.25-3.62.26-5.95,6.32-2.59,12.26-5.56,15.1-4.53,4.77-4.66,6.83.39,2.58-.77,3.23-2.85,3.35-2.33,4.38c0,0,.65,2.58-1.42,3.87a4.33,4.33,0,0,0-1.81,3.87s-.78,2.84-2.59,3.49-3,4.9-3,4.9L628.71,540l-11.55-12.79a4.89,4.89,0,0,0-6.9-.36h0L604.54,532a11.41,11.41,0,0,0-5.71,3.4,15.25,15.25,0,0,0-3,4.41l-3.13,2.81a7.94,7.94,0,0,0-.8,8.76l7.45,8.24v.07a13.16,13.16,0,0,0-7.2,2.93c-11.11,9.8-11.25,18.84-9.56,23s15.77,20,15.77,20,8.19,10.64,20,16.3h0l-.09.09q-.35.39-.69.81l-.19.24-.18.25-.21.31-.17.26c-.07.12-.15.24-.22.37l-.14.24-.27.5a.89.89,0,0,1-.08.17c-.11.23-.22.46-.32.7l-.11.27-.2.51a1.42,1.42,0,0,1-.11.33c0,.11-.12.33-.17.51s-.08.24-.11.36-.11.37-.16.57l-.09.35c-.07.3-.14.6-.2.92l-.06.37-.12.66-.06.47c0,.21-.06.42-.08.64a2.24,2.24,0,0,1-.05.49l-.06.74v1.7c-.26,15.09.62,17.29.62,17.29s1.83,4.8,6.86,5.15a8.27,8.27,0,0,0,2.22-.12c6.72-1.16,22.49-3.87,28-2.84,3.35.62,9.53-.3,13.94-1.13l1.16-.22.81,2.56,2.56-.7c.82.48,1.56.91,2.17,1.25l1.37.79c2.55,8.66,12.91,5.7,12.91,5.7l2.46,1.42,25,.65a50.11,50.11,0,0,0,8.83,4.24,6.91,6.91,0,0,0,1.26.27,53.72,53.72,0,0,0,7,.13c1.91,0,3.39-.13,3.39-.13s-.25-6.77-.61-14.36c9.53-.39,18-1,23.11-1.89,13.32-2.34,18.89-14.46,20.93-20.94a58.76,58.76,0,0,1,1.31,8,60.46,60.46,0,0,0,2.07,7,23.58,23.58,0,0,0,2.84,5.16c9.83-3.36,3.88-8.39,1.82-10.58s1.42-4,1.42-4,2.71-1.81,2.45-3.48-.38-3.49,8.41-3.36S806.88,623.35,806.88,623.35ZM670.35,541c.11.74,1.33,8.68,2.44,10.78a14,14,0,0,1,.29,4.24c-5.2-.41-10.63-.63-10.63-.63a1.34,1.34,0,0,1,.28.66l-.82-.18-1.19-.3,9.6-14.59Zm-19,30.25,9,1.43.76.12a29.07,29.07,0,0,0-.47,4.26c0,.13.2.3.49.48a11.77,11.77,0,0,0-.17,2.13c.14.72,4.36,2.26,9.19,3.54-.06.26-.13.51-.2.74h0c-4.27-2.25-11-3.3-11.77-5s-23.66-9.66-23.66-9.66-.84-.45-2.28-1.14l6,1.14,1.65-.17a89.26,89.26,0,0,0,11.44,2.13Z" transform="translate(-29.26 -13.22)"/><path class="cls-5" d="M777.45,629s-3.59,21.66-21.78,24.86-78.95,2.54-78.95,2.54-34.73-5-47.28-34.34-20.64-41-9.87-41.52,68.82,19.6,72.15,19.86S780.66,555.77,777.45,629Z" transform="translate(-29.26 -13.22)"/><path class="cls-19" d="M777.45,629s-3.59,21.66-21.78,24.86-78.95,2.54-78.95,2.54-34.73-5-47.28-34.34-20.64-41-9.87-41.52,68.82,19.6,72.15,19.86S780.66,555.77,777.45,629Z" transform="translate(-29.26 -13.22)"/><path class="cls-8" d="M614.55,653s1.81,4.78,6.8,5.12a8.46,8.46,0,0,0,2.19-.12c6.66-1.15,22.3-3.85,27.81-2.82,3.31.62,9.44-.29,13.81-1.12,2.9-.55,5-1.06,5-1.06s-5.13-17-5.77-17.56-23.07-14-23.07-14l-17.76-1.28h0a9.37,9.37,0,0,0-6,3.53c-1.88,2.27-3.48,6-3.59,12.1C613.67,650.86,614.55,653,614.55,653Z" transform="translate(-29.26 -13.22)"/><path class="cls-19" d="M614.55,653s1.81,4.78,6.8,5.12a75,75,0,0,1-4.83-7l.1-12.43a21.89,21.89,0,0,1,7-18.45h0s-9.35.63-9.61,15.63S614.55,653,614.55,653Z" transform="translate(-29.26 -13.22)"/><path class="cls-6" d="M691.59,625.87l16.53-12.94,26-25.63s-2.81-.14-7-.32c-1.06.67-4,2.79-4.12,5.36-.13,3.13-7,.21-10.62,2s-21.14,24.26-24.22,24.11-5.51-1.56-6.79.62l-.1.14Z" transform="translate(-29.26 -13.22)"/><path class="cls-6" d="M617.52,623.77c.59.29,1.18.56,1.79.82,12.56,5.38,28.07,16.66,29.22,18.71.7,1.25,9.69,6.71,16.63,10.8,2.9-.55,5-1.06,5-1.06s-5.13-17-5.77-17.56-23.07-14-23.07-14l-17.76-1.28h0A9.36,9.36,0,0,0,617.52,623.77Z" transform="translate(-29.26 -13.22)"/><path class="cls-5" d="M582.66,587c1.67,4.1,15.63,19.87,15.63,19.87s8.85,11.53,21.41,16.91,28.06,16.66,29.21,18.71c.75,1.32,10.75,7.35,17.81,11.49l1.58.92c1.38.81,2.58,1.51,3.5,2l1.85,1.07s4.29-3.45,8.56-6.91,8.42-6.87,8.48-7.06c.13-.38,1.8-4.74,1.41-5-.2-.13-1.08-1.9-2.7-4a18.15,18.15,0,0,0-6.53-5.39c-5.89-2.7-8.45-8.82-8.45-8.82s-.57-.41-1.41-1a17.22,17.22,0,0,0-5.77-2.57c-2.82-.35-8.07-6.12-8.07-6.12s-3.59-2.3-5-5.25S633,589.48,631.11,588.22l48.18,30.94,11.53,7.41,16.53-12.94,26-25.63s-3.5-.17-8.59-.39c-12.64-.55-35.1-1.4-37.93-.77a21.39,21.39,0,0,1-7,.47s-6.4.28-10.63-1.95-10.9-3.28-11.67-4.93-23.47-9.54-23.47-9.54-30.89-16.4-41.91-6.66S581,582.94,582.66,587Z" transform="translate(-29.26 -13.22)"/><path class="cls-20" d="M682.24,493l4,13.2,5.12,29.73,18.84,1.28,5.46-9,5.44-9s3.39-12,5.82-23.63c2.16-10.29,3.57-20.27,1.22-21.35-2.08-1-3.44-4.42-4.33-8.15-.11-.46-.22-.93-.31-1.39a71.45,71.45,0,0,1-1.25-9.56s-39.47-2.05-34,14.23a25.54,25.54,0,0,1,1.48,8.65,18.08,18.08,0,0,1-.13,2.21A18.45,18.45,0,0,1,682.24,493Z" transform="translate(-29.26 -13.22)"/><path class="cls-21" d="M674.06,490.8l1.41,22.42,3.21,19.1,3.59,8.84,3.2,48.38s30.9,3.58,38.41-.06a3.22,3.22,0,0,0,1.36-1.06c9.08-13.71,6.11-53.41,6.11-53.41l3.46-25.63-2.31-13.3-5.58-.59-4.29-.46s-1,1.19-2.36,3c-3.8,5-10.79,14.88-10.32,19,.64,5.64-.77,11.41-3,12.3s-4,2.44-4.36.9-.77-1.92-.38-4.1-1.65-8.78-1.65-8.78-3.46-7.82-3.2-11.15S697,499,696,498.12s-2.44-1.79-1.28-5.89-5.06-12.08-5.06-12.08Z" transform="translate(-29.26 -13.22)"/><path class="cls-6" d="M714.85,546.81l1.28,38.32,7.4,4.1a3.14,3.14,0,0,0,1.36-1.06C734,574.46,731,534.76,731,534.76l3.46-25.63-2.31-13.3-5.58-.59c2.16-10.29,3.57-20.26,1.22-21.35-2.08-1-3.45-4.42-4.33-8.14h0l-4,27.11s.34,2.44.46,5a14.23,14.23,0,0,1-.33,4.78c-.9,2.3-.25,6.4-.25,6.4-2.32,4.08-3.47,11.62-4,18.9C714.56,537.58,714.85,546.81,714.85,546.81Z" transform="translate(-29.26 -13.22)"/><path class="cls-8" d="M723.58,465.13s6.46.81,8.51,3.5,7.43,3.07,7.43,3.07,6.15,2,6,2.57,1.8,1.28,5.64,2.3,10.25,4.75,10.25,5.64,10.13,10.9,10.13,11.92,3.07,4.87,2.69,11.66-.77,15.38.77,16.79,0,6.92,0,6.92a3.8,3.8,0,0,0-.13,4.1c1.28,2.31-.26,11.92-.26,11.92l.13,10s-1.41,6.28.26,6.53-.26,3.08-.26,3.08-1.41,5.12.39,7.43,2.3,12.18,2.3,12.18l27.43,39.85s.38,7.31-8.33,7.18-8.59,1.66-8.33,3.33-2.44,3.46-2.44,3.46-3.46,1.79-1.41,4,8,7.18-1.79,10.51a23.22,23.22,0,0,1-2.82-5.12,59,59,0,0,1-2-6.93s-.9-9.73-2.69-11-1.54-7.43-1.54-7.43,2.56-5-1-7.05-55.61-30.88-55.61-30.88l-1.29-38.32s-.89-28.32,4.49-37.81c0,0-.64-4.1.26-6.4s-.13-9.74-.13-9.74Z" transform="translate(-29.26 -13.22)"/><path class="cls-6" d="M690,480.51s-12.88-2.65-16.34-.86-10.25,3.2-11.28,4.23-3.59.25-5.89,6.28-2.57,12.17-5.51,15-4.49,4.74-4.62,6.79.39,2.57-.77,3.21-2.82,3.33-2.3,4.36,26.65,23.58,26.65,23.58,1.28,8.58,2.44,10.76-1.28,32.17-3.85,34.22,17.3,1.86,17.3,1.86.9-19.68,1.67-20.7-.51-22-.51-22-.13-17.94,1.53-22.69,1.48-20.5,1.48-20.5,1.48-9.46,3.27-11.66S690,480.51,690,480.51Z" transform="translate(-29.26 -13.22)"/><path class="cls-8" d="M689.61,480.13s-12.89-2.66-16.35-.86S663,482.47,662,483.49s-3.59.26-5.9,6.28-2.56,12.18-5.51,15-4.48,4.74-4.61,6.79.38,2.56-.77,3.2-2.82,3.34-2.31,4.36,26.66,23.58,26.66,23.58,1.28,8.59,2.43,10.77-1.28,32.16-3.84,34.21,17.3,1.86,17.3,1.86.9-19.67,1.66-20.7-.51-22-.51-22-.13-17.94,1.54-22.68,1.48-20.51,1.48-20.51,1.47-9.46,3.26-11.66S689.61,480.13,689.61,480.13Z" transform="translate(-29.26 -13.22)"/><path class="cls-6" d="M688.26,469.27a25.54,25.54,0,0,1,1.48,8.65,28.73,28.73,0,0,0,8.39,1.22,29.34,29.34,0,0,0,25.34-14.54,71.45,71.45,0,0,1-1.25-9.56S682.75,453,688.26,469.27Z" transform="translate(-29.26 -13.22)"/><path class="cls-20" d="M668.78,449a29.35,29.35,0,1,0,.64-6.1A29.8,29.8,0,0,0,668.78,449Z" transform="translate(-29.26 -13.22)"/><path class="cls-8" d="M649.94,516.94l-7,2.18a3.66,3.66,0,0,1-1.41,3.85,4.31,4.31,0,0,0-1.79,3.84s-.77,2.82-2.57,3.46-2.94,4.87-2.94,4.87l-5.9,6.79s-2.18,1.8-1.79,2.69-2.31,1.16-2.31,1.16l1.41,22.81,12.18,2.3,7.56-.76,6.15-2.31,5.38-3.2,2.44-6.28,10.71-16.41Z" transform="translate(-29.26 -13.22)"/><path class="cls-20" d="M626,547.57s-15.64-22.55-27.3-10.38,4.74,31.91,8.58,31.27,22.18-1.67,22.18-1.67Z" transform="translate(-29.26 -13.22)"/><rect class="cls-8" x="582.04" y="507.6" width="63.54" height="81.83" rx="1.54" transform="translate(-183.06 832.64) rotate(-62.96)"/><rect class="cls-3" x="588" y="514.05" width="51.83" height="68.78" transform="translate(-182.93 832.7) rotate(-62.96)"/><circle class="cls-22" cx="551.71" cy="518.33" r="1.13"/><circle class="cls-22" cx="618.02" cy="552.31" r="1.86"/><path class="cls-20" d="M615.85,552.35c-.13,16.92,34.86,20.51,34.86,20.51l8.94,1.41,4,.64,1.67-16.56s-1.83-.28-4.13-.81c-3.38-.79-7.77-2.15-8.69-4.06C651,550.26,616,535.4,615.85,552.35Z" transform="translate(-29.26 -13.22)"/><path class="cls-6" d="M669.42,442.92a3.51,3.51,0,0,1,2.14,1c1,1.05,1,2.91,2.34,3.56a2.52,2.52,0,0,0,1.53.17c3.4-.48,5.38-4.33,8.65-5.38a8.69,8.69,0,0,1,5.73.49,4.36,4.36,0,0,1,1.9,1.22c1.09,1.42.33,3.5.83,5.21.71,2.38,3.55,3.33,6,3.64s5.23.49,6.87,2.34a6.25,6.25,0,0,1,1.23,5,3.82,3.82,0,0,0,0,1.84c.68,1.92,4,1.63,4.87.12.64-1.11.44-2,1.94-2.33a6.38,6.38,0,0,1,3.14.54,22.86,22.86,0,0,0,8.11,1.25A29.35,29.35,0,1,0,669.43,443Z" transform="translate(-29.26 -13.22)"/><path class="cls-8" d="M706.63,461.16a4.08,4.08,0,0,1,0-1.84,6.16,6.16,0,0,0-1.22-5c-1.64-1.85-4.41-2-6.87-2.34s-5.3-1.25-6-3.63c-.5-1.72.26-3.81-.83-5.22a4.36,4.36,0,0,0-1.9-1.22,8.69,8.69,0,0,0-5.73-.49c-3.27,1-5.25,4.9-8.65,5.38a2.52,2.52,0,0,1-1.53-.17c-1.29-.65-1.35-2.51-2.34-3.56-1.55-1.65-4.5-.58-6.41-1.81-1.24-.79-1.72-2.35-2.07-3.79-.68-2.79-1.22-5.71-.57-8.5,1.12-4.77,5.38-8,8.1-12.11,2.53-3.79,4-8.59,7.77-11.1s8.7-2,13-.67a37.64,37.64,0,0,0,6.09,1.6c3.47.42,7-.52,10.43-.64a22.49,22.49,0,0,1,13.78,4.19,7.73,7.73,0,0,1,2.25,2.27,12,12,0,0,1,1,4.08,20.92,20.92,0,0,0,2.7,7.5c1.08,1.8,2.43,3.44,3.4,5.3a8,8,0,0,1,.92,6.07,32.48,32.48,0,0,0-1.22,3.09c-.57,2.5,1.08,4.89,2.2,7.2a13.51,13.51,0,0,1,1.5,6.83,8.53,8.53,0,0,1-3.07,6.14,10.94,10.94,0,0,1-6.5,2,22.8,22.8,0,0,1-8.27-1.24,6.49,6.49,0,0,0-3.14-.54c-1.5.31-1.3,1.22-1.94,2.33C710.63,462.79,707.31,463.08,706.63,461.16Z" transform="translate(-29.26 -13.22)"/><path class="cls-6" d="M690.82,626.64l16.53-12.94,26-25.63s-3.5-.17-8.59-.39a5.66,5.66,0,0,0-1.81,3.5c-.13,3.14-7,.22-10.62,2s-21.12,24.28-24.2,24.17-5.51-1.56-6.79.62l-.1.14a3.6,3.6,0,0,1-2,1.16Z" transform="translate(-29.26 -13.22)"/><path class="cls-5" d="M657.5,625.74l8.31,26.52,1.3,4.16,4-1.08,8.73-2.39,38.84-10.67a33.7,33.7,0,0,0,14-3.73,42.44,42.44,0,0,1,24.14-5.27c5.13.49,10.84-1.73,15.58-10.48,0,0,10.76-31.78-16.41-40.88s-28.46,4.83-28.46,4.83l-.37.23c-1.06.67-4,2.79-4.12,5.36-.13,3.13-7,.21-10.62,2s-21.14,24.26-24.22,24.11-5.51-1.56-6.79.62l-.1.14c-.95,1.31-3.8,1.62-5.69,1.67h-1.77l-.24.08-2,.58Z" transform="translate(-29.26 -13.22)"/><path class="cls-6" d="M659.65,574.23l4,.64,1.67-16.52s-1.83-.28-4.13-.81C661.8,559.84,660.43,568.75,659.65,574.23Z" transform="translate(-29.26 -13.22)"/><path class="cls-6" d="M764.44,497s11.92-3.46,9,30.37-25,55.23-25,55.23-25.37,11.15-36.78,9.36-19.74-2.18-19.74-2.18a29.13,29.13,0,0,0-11.53-3.08c-6.41-.25-19.86-4.23-20.12-5.51s3.33-20.12,1.8-21.53c0,0,17.94.74,19.73,2s4.36.36,6.28,0,7.82-5.5,19.48-1c0,0,4,.38,5.51-.64s4-.26,4-.26a11.2,11.2,0,0,0,2.78-1.41c.39-.51,3.46,0,3.46,0a1.34,1.34,0,0,0,1.82-.62.79.79,0,0,0,.1-.27,8.54,8.54,0,0,1,1.8-2.82s3.46-19.48,10-26.79c0,0,1.92-1.66,1.4-3.71S749.06,492.89,764.44,497Z" transform="translate(-29.26 -13.22)"/><path class="cls-8" d="M764.12,494.35s11.92-3.46,9,30.37-25,55.23-25,55.23-25.38,11.15-36.78,9.36-19.74-2.18-19.74-2.18a29.13,29.13,0,0,0-11.54-3c-6.41-.25-19.87-4.22-20.12-5.51s3.33-20.12,1.79-21.53c0,0,17.94.74,19.74,2s4.35.37,6.28,0,7.81-5.5,19.47-1c0,0,4,.38,5.52-.64s4-.26,4-.26a10.93,10.93,0,0,0,2.79-1.41c.38-.51,3.46,0,3.46,0a1.34,1.34,0,0,0,1.82-.62.79.79,0,0,0,.1-.27A8.36,8.36,0,0,1,726.7,552s3.46-19.48,10-26.79c0,0,1.92-1.66,1.41-3.71S748.75,490.29,764.12,494.35Z" transform="translate(-29.26 -13.22)"/><path class="cls-6" d="M671.56,621.53,688.49,642l.11-.12c.13-.39,1.79-4.75,1.41-5s-3.33-6.67-9.23-9.36a17.51,17.51,0,0,1-7.24-6.59Z" transform="translate(-29.26 -13.22)"/><path class="cls-6" d="M671.8,657l1.85,1.07s4.29-3.45,8.56-6.91,8.42-6.87,8.48-7.06c.13-.38,1.8-4.74,1.41-5-.2-.13-1.08-1.9-2.7-4-11.47-3.21-4.17,4.75-3.19,5.12,0,0-14-3.21-14.74,12A18.25,18.25,0,0,0,671.8,657Z" transform="translate(-29.26 -13.22)"/><path class="cls-8" d="M686,663.42l2.44,1.41,24.73.64s5.31,3.21,8.75,4.21a7.77,7.77,0,0,0,1.25.28,54.61,54.61,0,0,0,6.89.13c1.89,0,3.36-.13,3.36-.13s-1.17-31.19-2-34.48c-.43-1.57-2.5-1.22-4.54-.44a31.24,31.24,0,0,0-4.43,2.25s-10.51,1-12.18,1.92-6.4-.52-9.35,0-8.2-3.47-8.2-3.47c-14.36-4.74-6.29,4.1-5.26,4.49,0,0-14-3.21-14.74,12S686,663.42,686,663.42Z" transform="translate(-29.26 -13.22)"/><path class="cls-23" d="M721.7,651.35c.27,6.45,5.31,14.47,8.31,18.71,1.89,0,3.36-.13,3.36-.13s-1.17-31.19-2-34.48c-.43-1.57-2.5-1.22-4.54-.44C724.29,639.7,721.49,646.17,721.7,651.35Z" transform="translate(-29.26 -13.22)"/><path class="cls-6" d="M721.7,651.35c.27,6.45,5.31,14.47,8.31,18.71,1.89,0,3.36-.13,3.36-.13s-1.17-31.19-2-34.48c-.43-1.57-2.5-1.22-4.54-.44C724.29,639.7,721.49,646.17,721.7,651.35Z" transform="translate(-29.26 -13.22)"/><path class="cls-19" d="M717.48,652.23c1.7,6.24,1.68,13.23,4.39,17.45a7.77,7.77,0,0,0,1.25.28,54.61,54.61,0,0,0,6.89.13c1.89,0,3.36-.13,3.36-.13s-1.17-31.19-2-34.48c-.43-1.57-2.5-1.22-4.54-.44a31.24,31.24,0,0,0-4.43,2.25S715.3,644.25,717.48,652.23Z" transform="translate(-29.26 -13.22)"/><path class="cls-6" d="M632.15,589s12.28,4,22.69,18.16Z" transform="translate(-29.26 -13.22)"/><g class="cls-17"><path d="M732,435.23a.36.36,0,0,1-.08.27,6.6,6.6,0,0,1-.42,1.07A7.21,7.21,0,0,1,732,435.23Z" transform="translate(-29.26 -13.22)"/><path d="M662.47,429a12.73,12.73,0,0,1,1-2.59c-.07.22-.14.44-.19.67-.65,2.79-.11,5.71.57,8.5.35,1.43.82,3,2.07,3.79,1.9,1.23,4.86.16,6.41,1.81,1,1,1,2.91,2.34,3.55a2.52,2.52,0,0,0,1.53.18c3.4-.48,5.37-4.33,8.65-5.39a8.7,8.7,0,0,1,5.73.5,4.27,4.27,0,0,1,1.9,1.22c1.09,1.41.32,3.5.83,5.21.71,2.38,3.54,3.33,6,3.64s5.23.48,6.87,2.34a6.16,6.16,0,0,1,1.22,5,4.08,4.08,0,0,0,0,1.84c.68,1.92,4,1.63,4.87.11.63-1.1.44-2,1.94-2.32a6.38,6.38,0,0,1,3.14.54,22.8,22.8,0,0,0,8.27,1.24,11,11,0,0,0,6.5-2,7.54,7.54,0,0,0,2-2.42,8.06,8.06,0,0,1-2.76,4.34,10.94,10.94,0,0,1-6.5,2,22.8,22.8,0,0,1-8.27-1.24,6.49,6.49,0,0,0-3.14-.54c-1.5.31-1.31,1.22-1.94,2.33-.87,1.51-4.19,1.8-4.87-.12a4.08,4.08,0,0,1,0-1.84,6.16,6.16,0,0,0-1.22-5c-1.64-1.85-4.41-2-6.87-2.34s-5.3-1.25-6-3.63c-.51-1.72.26-3.81-.83-5.22a4.36,4.36,0,0,0-1.9-1.22,8.69,8.69,0,0,0-5.73-.49c-3.27,1-5.25,4.9-8.65,5.38a2.52,2.52,0,0,1-1.53-.17c-1.29-.65-1.35-2.51-2.34-3.56-1.55-1.65-4.5-.58-6.41-1.81-1.24-.79-1.72-2.35-2.07-3.79C662.36,434.72,661.82,431.8,662.47,429Z" transform="translate(-29.26 -13.22)"/></g><path class="cls-6" d="M734,531.58c-2.34,3.17-5,6.1-7.1,9.46s-3.55,7.26-3.12,11.18c2.15-2.2,3.14-5.25,4.49-8,2.3-4.69,5.73-8.66,8.63-13,.55-.82,4.09-5.57,2.3-5.8C737.68,525.25,734.76,530.5,734,531.58Z" transform="translate(-29.26 -13.22)"/></svg>